HIERARCHY
ROOT Hips
{
  OFFSET 5.84602e-005 68.8428 3.50346
  CHANNELS 6 Xposition Yposition Zposition Zrotation Xrotation Yrotation
  JOINT Spine
  {
    OFFSET 0 8.597 -4.6522
    CHANNELS 3 Zrotation Xrotation Yrotation
    JOINT Spine1
    {
      OFFSET 0 7.8454 0.4098
      CHANNELS 3 Zrotation Xrotation Yrotation
      JOINT Spine2
      {
        OFFSET 0 9.7078 -2.1609
        CHANNELS 3 Zrotation Xrotation Yrotation
        JOINT Neck
        {
          OFFSET 0 21.8761 -0.4549
          CHANNELS 3 Zrotation Xrotation Yrotation
          JOINT Head
          {
            OFFSET 0 12.3537 3.3602
            CHANNELS 3 Zrotation Xrotation Yrotation
            End Site
            {
              OFFSET 0.0001 18.9506 0.5657
            }
          }
        }
        JOINT LeftShoulder
        {
          OFFSET 2.2086 21.1115 7.2329
          CHANNELS 3 Zrotation Xrotation Yrotation
          JOINT LeftArm
          {
            OFFSET 13.1193 3.0282 -4.8998
            CHANNELS 3 Zrotation Xrotation Yrotation
            JOINT LeftForeArm
            {
              OFFSET 27.4081 -0.0973053 -0.2375
              CHANNELS 3 Zrotation Xrotation Yrotation
              JOINT LeftHand
              {
                OFFSET 22.8641 0.0662994 -0.1369
                CHANNELS 3 Zrotation Xrotation Yrotation
                JOINT LeftHandIndex1
                {
                  OFFSET 8.8614 0.775009 2.4612
                  CHANNELS 3 Zrotation Xrotation Yrotation
                  JOINT LeftHandIndex2
                  {
                    OFFSET 3.3146 -0.808304 0.5841
                    CHANNELS 3 Zrotation Xrotation Yrotation
                    JOINT LeftHandIndex3
                    {
                      OFFSET 2.2628 -0.552002 0.3989
                      CHANNELS 3 Zrotation Xrotation Yrotation
                      End Site
                      {
                        OFFSET 1.6102 -0.4807 0.2612
                      }
                    }
                  }
                }
                JOINT LeftHandMiddle1
                {
                  OFFSET 8.9937 0.895004 0.2143
                  CHANNELS 3 Zrotation Xrotation Yrotation
                  JOINT LeftHandMiddle2
                  {
                    OFFSET 4.0984 0.0113983 -0.0242
                    CHANNELS 3 Zrotation Xrotation Yrotation
                    JOINT LeftHandMiddle3
                    {
                      OFFSET 2.2716 0.00689697 -0.0138001
                      CHANNELS 3 Zrotation Xrotation Yrotation
                      End Site
                      {
                        OFFSET 2.0404 -0.1441 0.0027
                      }
                    }
                  }
                }
                JOINT LeftHandRing1
                {
                  OFFSET 8.5234 0.597198 -2.0164
                  CHANNELS 3 Zrotation Xrotation Yrotation
                  JOINT LeftHandRing2
                  {
                    OFFSET 3.7188 -0.188293 -0.2328
                    CHANNELS 3 Zrotation Xrotation Yrotation
                    JOINT LeftHandRing3
                    {
                      OFFSET 2.1191 -0.106598 -0.1332
                      CHANNELS 3 Zrotation Xrotation Yrotation
                      End Site
                      {
                        OFFSET 1.8737 -0.2304 -0.0886
                      }
                    }
                  }
                }
                JOINT LeftHandPinky1
                {
                  OFFSET 7.9094 -0.601089 -3.4825
                  CHANNELS 3 Zrotation Xrotation Yrotation
                  JOINT LeftHandPinky2
                  {
                    OFFSET 2.2874 -0.477005 -0.6314
                    CHANNELS 3 Zrotation Xrotation Yrotation
                    JOINT LeftHandPinky3
                    {
                      OFFSET 1.6774 -0.349396 -0.4633
                      CHANNELS 3 Zrotation Xrotation Yrotation
                      End Site
                      {
                        OFFSET 1.4888 -0.4091 -0.3416
                      }
                    }
                  }
                }
                JOINT LeftHandThumb1
                {
                  OFFSET 1.833 -1.3875 1.3896
                  CHANNELS 3 Zrotation Xrotation Yrotation
                  JOINT LeftHandThumb2
                  {
                    OFFSET 3.4129 -1.121 2.5732
                    CHANNELS 3 Zrotation Xrotation Yrotation
                    JOINT LeftHandThumb3
                    {
                      OFFSET 2.2474 -0.804199 1.6192
                      CHANNELS 3 Zrotation Xrotation Yrotation
                      End Site
                      {
                        OFFSET 1.6527 -0.5689 1.1317
                      }
                    }
                  }
                }
              }
            }
          }
        }
        JOINT RightShoulder
        {
          OFFSET -2.2086 21.1115 7.2329
          CHANNELS 3 Zrotation Xrotation Yrotation
          JOINT RightArm
          {
            OFFSET -13.1216 3.0287 -4.9007
            CHANNELS 3 Zrotation Xrotation Yrotation
            JOINT RightForeArm
            {
              OFFSET -27.4081 -0.0973053 -0.2375
              CHANNELS 3 Zrotation Xrotation Yrotation
              JOINT RightHand
              {
                OFFSET -22.8641 0.0664063 -0.1369
                CHANNELS 3 Zrotation Xrotation Yrotation
                JOINT RightHandIndex1
                {
                  OFFSET -8.8614 0.774994 2.4612
                  CHANNELS 3 Zrotation Xrotation Yrotation
                  JOINT RightHandIndex2
                  {
                    OFFSET -3.3146 -0.808304 0.5841
                    CHANNELS 3 Zrotation Xrotation Yrotation
                    JOINT RightHandIndex3
                    {
                      OFFSET -2.2628 -0.552002 0.3989
                      CHANNELS 3 Zrotation Xrotation Yrotation
                      End Site
                      {
                        OFFSET -1.6102 -0.4807 0.2612
                      }
                    }
                  }
                }
                JOINT RightHandMiddle1
                {
                  OFFSET -8.9937 0.894989 0.2143
                  CHANNELS 3 Zrotation Xrotation Yrotation
                  JOINT RightHandMiddle2
                  {
                    OFFSET -4.0984 0.0113983 -0.0242
                    CHANNELS 3 Zrotation Xrotation Yrotation
                    JOINT RightHandMiddle3
                    {
                      OFFSET -2.2716 0.00691223 -0.0138001
                      CHANNELS 3 Zrotation Xrotation Yrotation
                      End Site
                      {
                        OFFSET -2.0404 -0.1441 0.0027
                      }
                    }
                  }
                }
                JOINT RightHandRing1
                {
                  OFFSET -8.5234 0.597198 -2.0164
                  CHANNELS 3 Zrotation Xrotation Yrotation
                  JOINT RightHandRing2
                  {
                    OFFSET -3.7188 -0.188309 -0.2328
                    CHANNELS 3 Zrotation Xrotation Yrotation
                    JOINT RightHandRing3
                    {
                      OFFSET -2.1191 -0.106598 -0.1332
                      CHANNELS 3 Zrotation Xrotation Yrotation
                      End Site
                      {
                        OFFSET -1.8737 -0.2304 -0.0886
                      }
                    }
                  }
                }
                JOINT RightHandPinky1
                {
                  OFFSET -7.9094 -0.601105 -3.4825
                  CHANNELS 3 Zrotation Xrotation Yrotation
                  JOINT RightHandPinky2
                  {
                    OFFSET -2.2874 -0.477005 -0.6314
                    CHANNELS 3 Zrotation Xrotation Yrotation
                    JOINT RightHandPinky3
                    {
                      OFFSET -1.6774 -0.349396 -0.4633
                      CHANNELS 3 Zrotation Xrotation Yrotation
                      End Site
                      {
                        OFFSET -1.4888 -0.4091 -0.3416
                      }
                    }
                  }
                }
                JOINT RightHandThumb1
                {
                  OFFSET -1.833 -1.38751 1.3896
                  CHANNELS 3 Zrotation Xrotation Yrotation
                  JOINT RightHandThumb2
                  {
                    OFFSET -3.41299 -1.12099 2.5732
                    CHANNELS 3 Zrotation Xrotation Yrotation
                    JOINT RightHandThumb3
                    {
                      OFFSET -2.24741 -0.804108 1.6192
                      CHANNELS 3 Zrotation Xrotation Yrotation
                      End Site
                      {
                        OFFSET -1.6527 -0.5689 1.1317
                      }
                    }
                  }
                }
              }
            }
          }
        }
      }
    }
  }
  JOINT RightUpLeg
  {
    OFFSET -9.1966 3.8861 -0.7581
    CHANNELS 3 Zrotation Xrotation Yrotation
    JOINT RightLeg
    {
      OFFSET -0.7359 -41.0265 0
      CHANNELS 3 Zrotation Xrotation Yrotation
      JOINT RightFoot
      {
        OFFSET 0 -40.2855 0
        CHANNELS 3 Zrotation Xrotation Yrotation
        JOINT RightToeBase
        {
          OFFSET 0 -5.6122 11.7359
          CHANNELS 3 Zrotation Xrotation Yrotation
          End Site
          {
            OFFSET 0 0 7.8731
          }
        }
      }
    }
  }
  JOINT LeftUpLeg
  {
    OFFSET 9.1965 3.8864 -0.7581
    CHANNELS 3 Zrotation Xrotation Yrotation
    JOINT LeftLeg
    {
      OFFSET 0.7359 -41.0268 0
      CHANNELS 3 Zrotation Xrotation Yrotation
      JOINT LeftFoot
      {
        OFFSET 0 -40.2855 0
        CHANNELS 3 Zrotation Xrotation Yrotation
        JOINT LeftToeBase
        {
          OFFSET 0 -5.6122 11.7359
          CHANNELS 3 Zrotation Xrotation Yrotation
          End Site
          {
            OFFSET 0 0 7.8731
          }
        }
      }
    }
  }
}
MOTION
Frames:	4
Frame Time:	0.0333333
5.84602e-005 68.8428 3.50346 0 0 -0 0 0 -0 0 0 -0 0 0 -0 0 0 -0 -0 0 0.00140347 0 0 -0 0 0 -0 0 0 -0 0 0 -0 0 0 -0 0 0 -0 0 0 -0 0 0 -0 -0.0146107 -8.87603e-005 -2.63497e-007 2.99804e-018 -2.42657e-020 -1.42182e-022 0 0 -0 -0.0187562 -0.001176 5.858e-005 5.06224e-018 3.88251e-019 1.21329e-020 0 0 -0 -0.012269 -0.00324817 0.000675346 -1.74678e-018 3.88251e-019 -0 0 0 -0 0 0 -0 0 0 -0 0 0 -0 0 0 -0 0 0 -0 0 0 -0 0 0 -0 0 0 -0 0 0 -0 0 0 -0 0.0149955 -9.10982e-005 2.64101e-007 -9.69331e-018 1.21329e-020 -4.7394e-023 0 0 -0 0.0189956 -0.00119102 -5.96516e-005 -5.41541e-019 0 2.42657e-020 0 0 -0 0.0122698 -0.00324857 -0.000673756 -2.00796e-019 0 -1.94126e-019 0 0 -0 0 0 -0 0 0 -0 3.39842 1.33031 -0.0637918 -5.65207e-008 0.834868 -0.000436188 -3.39935 -2.16518 -0.0642563 -8.89002e-024 -1.18485e-023 -1.48106e-024 -3.39844 1.35642 0.0640283 -3.18788e-007 0.782166 -0.000588827 3.39931 -2.13858 0.0634662 1.1399e-023 0 -0 
1.73169 40.7201 -1.59754 0 43.1471 -0 -1.34275 -1.05479 -1.89783 -2.72036 -2.06423 -3.8208 -2.72036 -2.06423 -3.8208 9.5746e-006 -0.0749512 3.50299e-006 -0.187403 0.445961 0.00140413 -10.4007 -7.86079 -42.7856 -42.4571 -5.45502 28.2349 -21.8119 16.4572 -66.6535 38.4146 -30.8434 -14.5433 1.98785e-016 0 3.18055e-015 -6.62086e-032 3.97569e-016 9.54166e-015 7.95139e-016 -5.96354e-016 9.54166e-015 1.98785e-016 0 3.18055e-015 -0.014591 -8.98682e-005 -1.96397e-006 -7.95139e-016 -3.97569e-016 -3.18055e-015 1.98785e-016 0 3.18055e-015 -0.018756 -0.00117109 6.449e-005 1.98785e-016 -1.98785e-016 6.36111e-015 1.98785e-016 0 3.18055e-015 -0.0122498 -0.00324734 0.000676297 1.98785e-016 1.98785e-016 -9.54166e-015 1.98785e-016 0 3.18055e-015 -6.62086e-032 3.97569e-016 9.54166e-015 7.95139e-016 -5.96354e-016 9.54166e-015 50.5971 -4.66819 -14.843 35.3911 -4.76215 -19.8497 38.6142 16.8767 10.4497 37.0734 -35.2276 43.6281 -7.95139e-016 1.59028e-015 1.26725e-015 3.64544e-006 9.22582e-006 1.78937e-006 2.63044e-007 3.95223e-007 1.80372e-006 -7.95139e-016 1.59028e-015 1.26725e-015 0.0149815 -7.65243e-005 6.08029e-006 -2.11067e-007 2.6684e-008 3.89413e-006 -7.95139e-016 1.59028e-015 1.26725e-015 0.0190026 -0.00119188 -5.17423e-005 2.64826e-007 3.9541e-007 1.80364e-006 -7.95139e-016 1.59028e-015 1.26725e-015 0.0122741 -0.00324602 -0.000671946 2.64232e-007 3.95115e-007 1.80361e-006 -7.95139e-016 1.59028e-015 1.26725e-015 3.64544e-006 9.22582e-006 1.78937e-006 2.63044e-007 3.95223e-007 1.80372e-006 -64.9961 -29.3217 -25.3632 -175.823 79.3155 173.416 62.2117 35.7416 -63.937 4.77083e-015 -1.27222e-014 -1.19271e-015 64.9588 -29.342 25.2839 176.159 79.3271 -173.748 -62.2949 35.6919 63.9715 1.15945e-006 3.07321e-006 3.87101e-006 
1.62955 42.134 -0.413618 0 39.1127 -0 -1.28183 -0.88087 -1.76655 -2.59065 -1.72155 -3.55298 -2.59065 -1.72156 -3.55298 2.54772e-005 0.00102089 2.30785e-006 -0.175495 0.534688 0.00140451 -9.81133 -7.02912 -40.147 -40.1207 -5.21662 26.5353 -21.3709 16.9513 -61.5646 35.9513 -29.4454 -13.9994 1.98785e-016 0 -0 3.97569e-016 -1.98785e-016 -0 3.97569e-016 1.59028e-015 -3.18055e-015 1.98785e-016 0 -0 -0.0146173 -9.09176e-005 2.44482e-006 -1.98626e-031 1.19271e-015 9.54166e-015 1.98785e-016 0 -0 -0.0187674 -0.00117751 6.04175e-005 7.7526e-015 8.15017e-015 3.18055e-015 1.98785e-016 0 -0 -0.0122879 -0.00325921 0.000677135 -1.1797e-007 -3.91183e-007 -4.45667e-008 1.98785e-016 0 -0 3.97569e-016 -1.98785e-016 -0 3.97569e-016 1.59028e-015 -3.18055e-015 47.9293 -4.45857 -13.5911 33.4796 -4.46584 -17.9842 36.5199 15.9135 9.78544 34.4438 -35.1072 39.1662 3.97569e-016 -3.18055e-015 2.03754e-015 7.95139e-016 -1.59028e-015 2.13694e-015 3.97569e-016 1.59028e-015 2.18663e-015 3.97569e-016 -3.18055e-015 2.03754e-015 0.0149622 -9.28285e-005 1.99708e-007 1.65521e-032 -3.18055e-015 2.98177e-016 3.97569e-016 -3.18055e-015 2.03754e-015 0.0189951 -0.00119476 -5.56594e-005 -1.59028e-015 1.59028e-015 3.13086e-015 3.97569e-016 -3.18055e-015 2.03754e-015 0.0122856 -0.00324917 -0.000674919 -1.19271e-015 1.59028e-015 2.28602e-015 3.97569e-016 -3.18055e-015 2.03754e-015 7.95139e-016 -1.59028e-015 2.13694e-015 3.97569e-016 1.59028e-015 2.18663e-015 -59.9997 -25.6514 -22.6916 -171.701 85.7438 169.678 54.6901 36.5461 -58.5034 5.96354e-016 6.36111e-015 3.97569e-016 60.0023 -25.6841 22.6205 172.477 85.7579 -170.446 -54.7765 36.5036 58.546 4.45435e-007 -1.70225e-006 -5.51273e-007 
1.62929 41.9977 0.4101 0 37.6975 -0 -1.28375 -0.779099 -1.7594 -2.59116 -1.51822 -3.53629 -2.59116 -1.51821 -3.53629 1.37696e-005 0.0688973 1.85123e-005 -0.174658 0.643294 0.00140255 -10.1469 -6.40759 -40.0589 -40.1308 -5.22145 26.5107 -21.1876 16.4864 -60.3672 35.2871 -29.7415 -14.5296 -5.96354e-016 -1.39149e-015 9.54166e-015 -3.97569e-016 1.98785e-016 1.90833e-014 -1.98785e-016 -1.98785e-016 9.54166e-015 -5.96354e-016 -1.39149e-015 9.54166e-015 -0.0146067 -8.73991e-005 -3.85063e-006 4.41391e-032 -3.97569e-016 6.36111e-015 -5.96354e-016 -1.39149e-015 9.54166e-015 -0.0187834 -0.00117244 6.23991e-005 5.96354e-016 0 6.36111e-015 -5.96354e-016 -1.39149e-015 9.54166e-015 -0.0122835 -0.00325127 0.000675106 1.98785e-016 -9.93923e-016 3.18055e-015 -5.96354e-016 -1.39149e-015 9.54166e-015 -3.97569e-016 1.98785e-016 1.90833e-014 -1.98785e-016 -1.98785e-016 9.54166e-015 48.1575 -4.50224 -13.2379 33.5537 -4.41949 -17.3317 36.5199 15.9134 9.78543 35.5943 -35.9759 38.1645 -1.19271e-015 1.59028e-015 2.98177e-015 -7.95139e-016 1.59028e-015 3.18055e-015 -7.95139e-016 0 3.08116e-015 -1.19271e-015 1.59028e-015 2.98177e-015 0.0149712 -8.88031e-005 1.60645e-006 -1.98785e-015 3.18055e-015 3.8763e-015 -1.19271e-015 1.59028e-015 2.98177e-015 0.0189734 -0.00119365 -5.69131e-005 -7.95139e-016 -3.18055e-015 -7.95139e-016 -1.19271e-015 1.59028e-015 2.98177e-015 0.012264 -0.00324543 -0.000679326 -1.19271e-015 1.59028e-015 -7.25564e-015 -1.19271e-015 1.59028e-015 2.98177e-015 -7.95139e-016 1.59028e-015 3.18055e-015 -7.95139e-016 0 3.08116e-015 -59.7144 -23.6769 -22.0907 -170.587 86.7484 168.601 53.6494 37.0366 -57.967 6.55817e-007 2.44138e-006 2.15633e-006 59.7503 -23.7238 22.0205 171.596 86.7631 -169.6 -53.7402 36.9957 58.0144 -7.88629e-007 -2.15417e-006 -2.44301e-006 
